<?xml version="1.0" encoding="UTF-8" standalone="no"?>
<!DOCTYPE svg PUBLIC "-//W3C//DTD SVG 1.1//EN"
 "http://www.w3.org/Graphics/SVG/1.1/DTD/svg11.dtd">
<!-- Generated by graphviz version 2.40.1 (0)
 -->
<!-- Title: snakemake_dag Pages: 1 -->
<svg width="250pt" height="476pt"
 viewBox="0.00 0.00 249.97 476.00" xmlns="http://www.w3.org/2000/svg" xmlns:xlink="http://www.w3.org/1999/xlink">
<g id="graph0" class="graph" transform="scale(1 1) rotate(0) translate(4 472)">
<title>snakemake_dag</title>
<polygon fill="#ffffff" stroke="transparent" points="-4,4 -4,-472 245.9701,-472 245.9701,4 -4,4"/>
<!-- 0 -->
<g id="node1" class="node">
<title>0</title>
<path fill="none" stroke="#d85656" stroke-width="2" d="M127.4701,-36C127.4701,-36 97.4701,-36 97.4701,-36 91.4701,-36 85.4701,-30 85.4701,-24 85.4701,-24 85.4701,-12 85.4701,-12 85.4701,-6 91.4701,0 97.4701,0 97.4701,0 127.4701,0 127.4701,0 133.4701,0 139.4701,-6 139.4701,-12 139.4701,-12 139.4701,-24 139.4701,-24 139.4701,-30 133.4701,-36 127.4701,-36"/>
<text text-anchor="middle" x="112.4701" y="-15.5" font-family="sans" font-size="10.00" fill="#000000">all</text>
</g>
<!-- 1 -->
<g id="node2" class="node">
<title>1</title>
<path fill="none" stroke="#afd856" stroke-width="2" d="M229.9701,-180C229.9701,-180 122.9701,-180 122.9701,-180 116.9701,-180 110.9701,-174 110.9701,-168 110.9701,-168 110.9701,-156 110.9701,-156 110.9701,-150 116.9701,-144 122.9701,-144 122.9701,-144 229.9701,-144 229.9701,-144 235.9701,-144 241.9701,-150 241.9701,-156 241.9701,-156 241.9701,-168 241.9701,-168 241.9701,-174 235.9701,-180 229.9701,-180"/>
<text text-anchor="middle" x="176.4701" y="-159.5" font-family="sans" font-size="10.00" fill="#000000">transdecoder_map_orfs</text>
</g>
<!-- 1&#45;&gt;0 -->
<g id="edge1" class="edge">
<title>1&#45;&gt;0</title>
<path fill="none" stroke="#c0c0c0" stroke-width="2" d="M168.3644,-143.7623C157.3521,-118.9846 137.5684,-74.4714 124.734,-45.5939"/>
<polygon fill="#c0c0c0" stroke="#c0c0c0" stroke-width="2" points="127.7697,-43.8062 120.5099,-36.0896 121.373,-46.6492 127.7697,-43.8062"/>
</g>
<!-- 2 -->
<g id="node3" class="node">
<title>2</title>
<path fill="none" stroke="#70d856" stroke-width="2" d="M114.9701,-252C114.9701,-252 19.9701,-252 19.9701,-252 13.9701,-252 7.9701,-246 7.9701,-240 7.9701,-240 7.9701,-228 7.9701,-228 7.9701,-222 13.9701,-216 19.9701,-216 19.9701,-216 114.9701,-216 114.9701,-216 120.9701,-216 126.9701,-222 126.9701,-228 126.9701,-228 126.9701,-240 126.9701,-240 126.9701,-246 120.9701,-252 114.9701,-252"/>
<text text-anchor="middle" x="67.4701" y="-231.5" font-family="sans" font-size="10.00" fill="#000000">transdecoder_predict</text>
</g>
<!-- 2&#45;&gt;1 -->
<g id="edge3" class="edge">
<title>2&#45;&gt;1</title>
<path fill="none" stroke="#c0c0c0" stroke-width="2" d="M94.9754,-215.8314C108.788,-206.7074 125.6957,-195.539 140.523,-185.7449"/>
<polygon fill="#c0c0c0" stroke="#c0c0c0" stroke-width="2" points="142.5586,-188.5949 148.9735,-180.1628 138.7005,-182.7541 142.5586,-188.5949"/>
</g>
<!-- 7 -->
<g id="node8" class="node">
<title>7</title>
<path fill="none" stroke="#56d873" stroke-width="2" d="M80.4701,-180C80.4701,-180 18.4701,-180 18.4701,-180 12.4701,-180 6.4701,-174 6.4701,-168 6.4701,-168 6.4701,-156 6.4701,-156 6.4701,-150 12.4701,-144 18.4701,-144 18.4701,-144 80.4701,-144 80.4701,-144 86.4701,-144 92.4701,-150 92.4701,-156 92.4701,-156 92.4701,-168 92.4701,-168 92.4701,-174 86.4701,-180 80.4701,-180"/>
<text text-anchor="middle" x="49.4701" y="-159.5" font-family="sans" font-size="10.00" fill="#000000">clean_pep_file</text>
</g>
<!-- 2&#45;&gt;7 -->
<g id="edge12" class="edge">
<title>2&#45;&gt;7</title>
<path fill="none" stroke="#c0c0c0" stroke-width="2" d="M62.9279,-215.8314C60.9816,-208.0463 58.6633,-198.7729 56.5037,-190.1347"/>
<polygon fill="#c0c0c0" stroke="#c0c0c0" stroke-width="2" points="59.8943,-189.2658 54.0734,-180.4133 53.1033,-190.9636 59.8943,-189.2658"/>
</g>
<!-- 3 -->
<g id="node4" class="node">
<title>3</title>
<path fill="none" stroke="#d88d56" stroke-width="2" d="M102.9701,-468C102.9701,-468 67.9701,-468 67.9701,-468 61.9701,-468 55.9701,-462 55.9701,-456 55.9701,-456 55.9701,-444 55.9701,-444 55.9701,-438 61.9701,-432 67.9701,-432 67.9701,-432 102.9701,-432 102.9701,-432 108.9701,-432 114.9701,-438 114.9701,-444 114.9701,-444 114.9701,-456 114.9701,-456 114.9701,-462 108.9701,-468 102.9701,-468"/>
<text text-anchor="middle" x="85.4701" y="-447.5" font-family="sans" font-size="10.00" fill="#000000">bedtools</text>
</g>
<!-- 3&#45;&gt;1 -->
<g id="edge5" class="edge">
<title>3&#45;&gt;1</title>
<path fill="none" stroke="#c0c0c0" stroke-width="2" d="M115.1929,-443.0508C139.0977,-435.7253 171.1382,-421.5829 186.4701,-396 225.5301,-330.8241 202.2381,-236.117 186.8096,-189.7188"/>
<polygon fill="#c0c0c0" stroke="#c0c0c0" stroke-width="2" points="190.0451,-188.3652 183.4743,-180.0541 183.428,-190.6488 190.0451,-188.3652"/>
</g>
<!-- 3&#45;&gt;2 -->
<g id="edge6" class="edge">
<title>3&#45;&gt;2</title>
<path fill="none" stroke="#c0c0c0" stroke-width="2" d="M68.7551,-431.6632C48.9324,-408.5523 17.0013,-366.6667 4.4701,-324 -.0387,-308.6484 -2.2157,-302.5362 4.4701,-288 9.7371,-276.5483 18.7636,-266.6164 28.3643,-258.5032"/>
<polygon fill="#c0c0c0" stroke="#c0c0c0" stroke-width="2" points="30.7885,-261.0498 36.494,-252.1224 26.4666,-255.5433 30.7885,-261.0498"/>
</g>
<!-- 4 -->
<g id="node5" class="node">
<title>4</title>
<path fill="none" stroke="#d8cb56" stroke-width="2" d="M126.9701,-324C126.9701,-324 25.9701,-324 25.9701,-324 19.9701,-324 13.9701,-318 13.9701,-312 13.9701,-312 13.9701,-300 13.9701,-300 13.9701,-294 19.9701,-288 25.9701,-288 25.9701,-288 126.9701,-288 126.9701,-288 132.9701,-288 138.9701,-294 138.9701,-300 138.9701,-300 138.9701,-312 138.9701,-312 138.9701,-318 132.9701,-324 126.9701,-324"/>
<text text-anchor="middle" x="76.4701" y="-303.5" font-family="sans" font-size="10.00" fill="#000000">transdecoder_longorfs</text>
</g>
<!-- 3&#45;&gt;4 -->
<g id="edge9" class="edge">
<title>3&#45;&gt;4</title>
<path fill="none" stroke="#c0c0c0" stroke-width="2" d="M76.3124,-431.5129C71.7688,-421.3118 66.7699,-408.2593 64.4701,-396 60.5826,-375.2781 64.0328,-351.6421 68.2146,-333.7933"/>
<polygon fill="#c0c0c0" stroke="#c0c0c0" stroke-width="2" points="71.6275,-334.5739 70.7113,-324.0188 64.8452,-332.8415 71.6275,-334.5739"/>
</g>
<!-- 5 -->
<g id="node6" class="node">
<title>5</title>
<path fill="none" stroke="#56c9d8" stroke-width="2" d="M165.4701,-396C165.4701,-396 85.4701,-396 85.4701,-396 79.4701,-396 73.4701,-390 73.4701,-384 73.4701,-384 73.4701,-372 73.4701,-372 73.4701,-366 79.4701,-360 85.4701,-360 85.4701,-360 165.4701,-360 165.4701,-360 171.4701,-360 177.4701,-366 177.4701,-372 177.4701,-372 177.4701,-384 177.4701,-384 177.4701,-390 171.4701,-396 165.4701,-396"/>
<text text-anchor="middle" x="125.4701" y="-375.5" font-family="sans" font-size="10.00" fill="#000000">transdecoder_gff3</text>
</g>
<!-- 3&#45;&gt;5 -->
<g id="edge10" class="edge">
<title>3&#45;&gt;5</title>
<path fill="none" stroke="#c0c0c0" stroke-width="2" d="M95.5637,-431.8314C100.0298,-423.7925 105.3775,-414.1666 110.3079,-405.2918"/>
<polygon fill="#c0c0c0" stroke="#c0c0c0" stroke-width="2" points="113.4435,-406.8546 115.2405,-396.4133 107.3244,-403.4551 113.4435,-406.8546"/>
</g>
<!-- 4&#45;&gt;2 -->
<g id="edge7" class="edge">
<title>4&#45;&gt;2</title>
<path fill="none" stroke="#c0c0c0" stroke-width="2" d="M74.199,-287.8314C73.2364,-280.131 72.0918,-270.9743 71.0221,-262.4166"/>
<polygon fill="#c0c0c0" stroke="#c0c0c0" stroke-width="2" points="74.4851,-261.9019 69.7717,-252.4133 67.5392,-262.7702 74.4851,-261.9019"/>
</g>
<!-- 5&#45;&gt;1 -->
<g id="edge4" class="edge">
<title>5&#45;&gt;1</title>
<path fill="none" stroke="#c0c0c0" stroke-width="2" d="M133.9818,-359.8451C138.5356,-349.5242 143.9205,-336.2514 147.4701,-324 160.7571,-278.1394 169.0546,-223.1219 173.2148,-190.4439"/>
<polygon fill="#c0c0c0" stroke="#c0c0c0" stroke-width="2" points="176.7199,-190.6165 174.4683,-180.2637 169.7723,-189.761 176.7199,-190.6165"/>
</g>
<!-- 5&#45;&gt;4 -->
<g id="edge8" class="edge">
<title>5&#45;&gt;4</title>
<path fill="none" stroke="#c0c0c0" stroke-width="2" d="M113.1053,-359.8314C107.5192,-351.6232 100.8071,-341.7606 94.6629,-332.7323"/>
<polygon fill="#c0c0c0" stroke="#c0c0c0" stroke-width="2" points="97.5211,-330.7112 89.0013,-324.4133 91.7341,-334.6496 97.5211,-330.7112"/>
</g>
<!-- 6 -->
<g id="node7" class="node">
<title>6</title>
<path fill="none" stroke="#5692d8" stroke-width="2" d="M109.9701,-108C109.9701,-108 38.9701,-108 38.9701,-108 32.9701,-108 26.9701,-102 26.9701,-96 26.9701,-96 26.9701,-84 26.9701,-84 26.9701,-78 32.9701,-72 38.9701,-72 38.9701,-72 109.9701,-72 109.9701,-72 115.9701,-72 121.9701,-78 121.9701,-84 121.9701,-84 121.9701,-96 121.9701,-96 121.9701,-102 115.9701,-108 109.9701,-108"/>
<text text-anchor="middle" x="74.4701" y="-87.5" font-family="sans" font-size="10.00" fill="#000000">eggnog_mapper</text>
</g>
<!-- 6&#45;&gt;0 -->
<g id="edge2" class="edge">
<title>6&#45;&gt;0</title>
<path fill="none" stroke="#c0c0c0" stroke-width="2" d="M84.0591,-71.8314C88.3018,-63.7925 93.3821,-54.1666 98.0661,-45.2918"/>
<polygon fill="#c0c0c0" stroke="#c0c0c0" stroke-width="2" points="101.1796,-46.8908 102.7519,-36.4133 94.9889,-43.6235 101.1796,-46.8908"/>
</g>
<!-- 7&#45;&gt;6 -->
<g id="edge11" class="edge">
<title>7&#45;&gt;6</title>
<path fill="none" stroke="#c0c0c0" stroke-width="2" d="M55.7786,-143.8314C58.4817,-136.0463 61.7017,-126.7729 64.701,-118.1347"/>
<polygon fill="#c0c0c0" stroke="#c0c0c0" stroke-width="2" points="68.1027,-119.0081 68.0766,-108.4133 61.49,-116.7119 68.1027,-119.0081"/>
</g>
</g>
</svg>
