<?xml version="1.0" encoding="UTF-8" standalone="no"?>
<!DOCTYPE svg PUBLIC "-//W3C//DTD SVG 1.1//EN"
 "http://www.w3.org/Graphics/SVG/1.1/DTD/svg11.dtd">
<!-- Generated by graphviz version 2.40.1 (0)
 -->
<!-- Title: snakemake_dag Pages: 1 -->
<svg width="178pt" height="332pt"
 viewBox="0.00 0.00 178.00 332.00" xmlns="http://www.w3.org/2000/svg" xmlns:xlink="http://www.w3.org/1999/xlink">
<g id="graph0" class="graph" transform="scale(1 1) rotate(0) translate(4 328)">
<title>snakemake_dag</title>
<polygon fill="#ffffff" stroke="transparent" points="-4,4 -4,-328 174,-328 174,4 -4,4"/>
<!-- 0 -->
<g id="node1" class="node">
<title>0</title>
<path fill="none" stroke="#56d873" stroke-width="2" d="M109.5,-36C109.5,-36 79.5,-36 79.5,-36 73.5,-36 67.5,-30 67.5,-24 67.5,-24 67.5,-12 67.5,-12 67.5,-6 73.5,0 79.5,0 79.5,0 109.5,0 109.5,0 115.5,0 121.5,-6 121.5,-12 121.5,-12 121.5,-24 121.5,-24 121.5,-30 115.5,-36 109.5,-36"/>
<text text-anchor="middle" x="94.5" y="-15.5" font-family="sans" font-size="10.00" fill="#000000">all</text>
</g>
<!-- 1 -->
<g id="node2" class="node">
<title>1</title>
<path fill="none" stroke="#afd856" stroke-width="2" d="M83,-108C83,-108 12,-108 12,-108 6,-108 0,-102 0,-96 0,-96 0,-84 0,-84 0,-78 6,-72 12,-72 12,-72 83,-72 83,-72 89,-72 95,-78 95,-84 95,-84 95,-96 95,-96 95,-102 89,-108 83,-108"/>
<text text-anchor="middle" x="47.5" y="-87.5" font-family="sans" font-size="10.00" fill="#000000">bam_seperation</text>
</g>
<!-- 1&#45;&gt;0 -->
<g id="edge1" class="edge">
<title>1&#45;&gt;0</title>
<path fill="none" stroke="#c0c0c0" stroke-width="2" d="M59.3601,-71.8314C64.6629,-63.7079 71.0237,-53.9637 76.8673,-45.0118"/>
<polygon fill="#c0c0c0" stroke="#c0c0c0" stroke-width="2" points="79.9448,-46.7003 82.4802,-36.4133 74.0831,-42.8739 79.9448,-46.7003"/>
</g>
<!-- 2 -->
<g id="node3" class="node">
<title>2</title>
<path fill="none" stroke="#70d856" stroke-width="2" d="M134.5,-180C134.5,-180 54.5,-180 54.5,-180 48.5,-180 42.5,-174 42.5,-168 42.5,-168 42.5,-156 42.5,-156 42.5,-150 48.5,-144 54.5,-144 54.5,-144 134.5,-144 134.5,-144 140.5,-144 146.5,-150 146.5,-156 146.5,-156 146.5,-168 146.5,-168 146.5,-174 140.5,-180 134.5,-180"/>
<text text-anchor="middle" x="94.5" y="-159.5" font-family="sans" font-size="10.00" fill="#000000">seperate_mapped</text>
</g>
<!-- 2&#45;&gt;1 -->
<g id="edge3" class="edge">
<title>2&#45;&gt;1</title>
<path fill="none" stroke="#c0c0c0" stroke-width="2" d="M82.6399,-143.8314C77.3371,-135.7079 70.9763,-125.9637 65.1327,-117.0118"/>
<polygon fill="#c0c0c0" stroke="#c0c0c0" stroke-width="2" points="67.9169,-114.8739 59.5198,-108.4133 62.0552,-118.7003 67.9169,-114.8739"/>
</g>
<!-- 5 -->
<g id="node6" class="node">
<title>5</title>
<path fill="none" stroke="#56d8a9" stroke-width="2" d="M158,-108C158,-108 125,-108 125,-108 119,-108 113,-102 113,-96 113,-96 113,-84 113,-84 113,-78 119,-72 125,-72 125,-72 158,-72 158,-72 164,-72 170,-78 170,-84 170,-84 170,-96 170,-96 170,-102 164,-108 158,-108"/>
<text text-anchor="middle" x="141.5" y="-87.5" font-family="sans" font-size="10.00" fill="#000000">scallop2</text>
</g>
<!-- 2&#45;&gt;5 -->
<g id="edge6" class="edge">
<title>2&#45;&gt;5</title>
<path fill="none" stroke="#c0c0c0" stroke-width="2" d="M106.3601,-143.8314C111.6629,-135.7079 118.0237,-125.9637 123.8673,-117.0118"/>
<polygon fill="#c0c0c0" stroke="#c0c0c0" stroke-width="2" points="126.9448,-118.7003 129.4802,-108.4133 121.0831,-114.8739 126.9448,-118.7003"/>
</g>
<!-- 3 -->
<g id="node4" class="node">
<title>3</title>
<path fill="none" stroke="#56c9d8" stroke-width="2" d="M124,-252C124,-252 65,-252 65,-252 59,-252 53,-246 53,-240 53,-240 53,-228 53,-228 53,-222 59,-216 65,-216 65,-216 124,-216 124,-216 130,-216 136,-222 136,-228 136,-228 136,-240 136,-240 136,-246 130,-252 124,-252"/>
<text text-anchor="middle" x="94.5" y="-231.5" font-family="sans" font-size="10.00" fill="#000000">star_mapping</text>
</g>
<!-- 3&#45;&gt;2 -->
<g id="edge4" class="edge">
<title>3&#45;&gt;2</title>
<path fill="none" stroke="#c0c0c0" stroke-width="2" d="M94.5,-215.8314C94.5,-208.131 94.5,-198.9743 94.5,-190.4166"/>
<polygon fill="#c0c0c0" stroke="#c0c0c0" stroke-width="2" points="98.0001,-190.4132 94.5,-180.4133 91.0001,-190.4133 98.0001,-190.4132"/>
</g>
<!-- 4 -->
<g id="node5" class="node">
<title>4</title>
<path fill="none" stroke="#d88d56" stroke-width="2" d="M116.5,-324C116.5,-324 72.5,-324 72.5,-324 66.5,-324 60.5,-318 60.5,-312 60.5,-312 60.5,-300 60.5,-300 60.5,-294 66.5,-288 72.5,-288 72.5,-288 116.5,-288 116.5,-288 122.5,-288 128.5,-294 128.5,-300 128.5,-300 128.5,-312 128.5,-312 128.5,-318 122.5,-324 116.5,-324"/>
<text text-anchor="middle" x="94.5" y="-303.5" font-family="sans" font-size="10.00" fill="#000000">star_index</text>
</g>
<!-- 4&#45;&gt;3 -->
<g id="edge5" class="edge">
<title>4&#45;&gt;3</title>
<path fill="none" stroke="#c0c0c0" stroke-width="2" d="M94.5,-287.8314C94.5,-280.131 94.5,-270.9743 94.5,-262.4166"/>
<polygon fill="#c0c0c0" stroke="#c0c0c0" stroke-width="2" points="98.0001,-262.4132 94.5,-252.4133 91.0001,-262.4133 98.0001,-262.4132"/>
</g>
<!-- 5&#45;&gt;0 -->
<g id="edge2" class="edge">
<title>5&#45;&gt;0</title>
<path fill="none" stroke="#c0c0c0" stroke-width="2" d="M129.6399,-71.8314C124.3371,-63.7079 117.9763,-53.9637 112.1327,-45.0118"/>
<polygon fill="#c0c0c0" stroke="#c0c0c0" stroke-width="2" points="114.9169,-42.8739 106.5198,-36.4133 109.0552,-46.7003 114.9169,-42.8739"/>
</g>
</g>
</svg>
