<?xml version="1.0" encoding="UTF-8" standalone="no"?>
<!DOCTYPE svg PUBLIC "-//W3C//DTD SVG 1.1//EN"
 "http://www.w3.org/Graphics/SVG/1.1/DTD/svg11.dtd">
<!-- Generated by graphviz version 2.40.1 (0)
 -->
<!-- Title: snakemake_dag Pages: 1 -->
<svg width="91pt" height="260pt"
 viewBox="0.00 0.00 91.00 260.00" xmlns="http://www.w3.org/2000/svg" xmlns:xlink="http://www.w3.org/1999/xlink">
<g id="graph0" class="graph" transform="scale(1 1) rotate(0) translate(4 256)">
<title>snakemake_dag</title>
<polygon fill="#ffffff" stroke="transparent" points="-4,4 -4,-256 87,-256 87,4 -4,4"/>
<!-- 0 -->
<g id="node1" class="node">
<title>0</title>
<path fill="none" stroke="#afd856" stroke-width="2" d="M56.5,-36C56.5,-36 26.5,-36 26.5,-36 20.5,-36 14.5,-30 14.5,-24 14.5,-24 14.5,-12 14.5,-12 14.5,-6 20.5,0 26.5,0 26.5,0 56.5,0 56.5,0 62.5,0 68.5,-6 68.5,-12 68.5,-12 68.5,-24 68.5,-24 68.5,-30 62.5,-36 56.5,-36"/>
<text text-anchor="middle" x="41.5" y="-15.5" font-family="sans" font-size="10.00" fill="#000000">all</text>
</g>
<!-- 1 -->
<g id="node2" class="node">
<title>1</title>
<path fill="none" stroke="#56d8a9" stroke-width="2" d="M58,-108C58,-108 25,-108 25,-108 19,-108 13,-102 13,-96 13,-96 13,-84 13,-84 13,-78 19,-72 25,-72 25,-72 58,-72 58,-72 64,-72 70,-78 70,-84 70,-84 70,-96 70,-96 70,-102 64,-108 58,-108"/>
<text text-anchor="middle" x="41.5" y="-87.5" font-family="sans" font-size="10.00" fill="#000000">scallop2</text>
</g>
<!-- 1&#45;&gt;0 -->
<g id="edge1" class="edge">
<title>1&#45;&gt;0</title>
<path fill="none" stroke="#c0c0c0" stroke-width="2" d="M41.5,-71.8314C41.5,-64.131 41.5,-54.9743 41.5,-46.4166"/>
<polygon fill="#c0c0c0" stroke="#c0c0c0" stroke-width="2" points="45.0001,-46.4132 41.5,-36.4133 38.0001,-46.4133 45.0001,-46.4132"/>
</g>
<!-- 2 -->
<g id="node3" class="node">
<title>2</title>
<path fill="none" stroke="#d85656" stroke-width="2" d="M71,-180C71,-180 12,-180 12,-180 6,-180 0,-174 0,-168 0,-168 0,-156 0,-156 0,-150 6,-144 12,-144 12,-144 71,-144 71,-144 77,-144 83,-150 83,-156 83,-156 83,-168 83,-168 83,-174 77,-180 71,-180"/>
<text text-anchor="middle" x="41.5" y="-159.5" font-family="sans" font-size="10.00" fill="#000000">star_mapping</text>
</g>
<!-- 2&#45;&gt;1 -->
<g id="edge2" class="edge">
<title>2&#45;&gt;1</title>
<path fill="none" stroke="#c0c0c0" stroke-width="2" d="M41.5,-143.8314C41.5,-136.131 41.5,-126.9743 41.5,-118.4166"/>
<polygon fill="#c0c0c0" stroke="#c0c0c0" stroke-width="2" points="45.0001,-118.4132 41.5,-108.4133 38.0001,-118.4133 45.0001,-118.4132"/>
</g>
<!-- 3 -->
<g id="node4" class="node">
<title>3</title>
<path fill="none" stroke="#59d856" stroke-width="2" d="M63.5,-252C63.5,-252 19.5,-252 19.5,-252 13.5,-252 7.5,-246 7.5,-240 7.5,-240 7.5,-228 7.5,-228 7.5,-222 13.5,-216 19.5,-216 19.5,-216 63.5,-216 63.5,-216 69.5,-216 75.5,-222 75.5,-228 75.5,-228 75.5,-240 75.5,-240 75.5,-246 69.5,-252 63.5,-252"/>
<text text-anchor="middle" x="41.5" y="-231.5" font-family="sans" font-size="10.00" fill="#000000">star_index</text>
</g>
<!-- 3&#45;&gt;2 -->
<g id="edge3" class="edge">
<title>3&#45;&gt;2</title>
<path fill="none" stroke="#c0c0c0" stroke-width="2" d="M41.5,-215.8314C41.5,-208.131 41.5,-198.9743 41.5,-190.4166"/>
<polygon fill="#c0c0c0" stroke="#c0c0c0" stroke-width="2" points="45.0001,-190.4132 41.5,-180.4133 38.0001,-190.4133 45.0001,-190.4132"/>
</g>
</g>
</svg>
