<?xml version="1.0" encoding="UTF-8" standalone="no"?>
<!DOCTYPE svg PUBLIC "-//W3C//DTD SVG 1.1//EN"
 "http://www.w3.org/Graphics/SVG/1.1/DTD/svg11.dtd">
<!-- Generated by graphviz version 2.40.1 (0)
 -->
<!-- Title: snakemake_dag Pages: 1 -->
<svg width="103pt" height="116pt"
 viewBox="0.00 0.00 103.00 116.00" xmlns="http://www.w3.org/2000/svg" xmlns:xlink="http://www.w3.org/1999/xlink">
<g id="graph0" class="graph" transform="scale(1 1) rotate(0) translate(4 112)">
<title>snakemake_dag</title>
<polygon fill="#ffffff" stroke="transparent" points="-4,4 -4,-112 99,-112 99,4 -4,4"/>
<!-- 0 -->
<g id="node1" class="node">
<title>0</title>
<path fill="none" stroke="#59d856" stroke-width="2" d="M62.5,-36C62.5,-36 32.5,-36 32.5,-36 26.5,-36 20.5,-30 20.5,-24 20.5,-24 20.5,-12 20.5,-12 20.5,-6 26.5,0 32.5,0 32.5,0 62.5,0 62.5,0 68.5,0 74.5,-6 74.5,-12 74.5,-12 74.5,-24 74.5,-24 74.5,-30 68.5,-36 62.5,-36"/>
<text text-anchor="middle" x="47.5" y="-15.5" font-family="sans" font-size="10.00" fill="#000000">all</text>
</g>
<!-- 1 -->
<g id="node2" class="node">
<title>1</title>
<path fill="none" stroke="#d85656" stroke-width="2" d="M83,-108C83,-108 12,-108 12,-108 6,-108 0,-102 0,-96 0,-96 0,-84 0,-84 0,-78 6,-72 12,-72 12,-72 83,-72 83,-72 89,-72 95,-78 95,-84 95,-84 95,-96 95,-96 95,-102 89,-108 83,-108"/>
<text text-anchor="middle" x="47.5" y="-87.5" font-family="sans" font-size="10.00" fill="#000000">bam_seperation</text>
</g>
<!-- 1&#45;&gt;0 -->
<g id="edge1" class="edge">
<title>1&#45;&gt;0</title>
<path fill="none" stroke="#c0c0c0" stroke-width="2" d="M47.5,-71.8314C47.5,-64.131 47.5,-54.9743 47.5,-46.4166"/>
<polygon fill="#c0c0c0" stroke="#c0c0c0" stroke-width="2" points="51.0001,-46.4132 47.5,-36.4133 44.0001,-46.4133 51.0001,-46.4132"/>
</g>
</g>
</svg>
